<svg width="200" height="200" xmlns="http://www.w3.org/2000/svg">
 <!-- Created with Method Draw - http://github.com/duopixel/Method-Draw/ -->

 <g>
  <title>background</title>
  <rect fill="none" id="canvas_background" height="202" width="202" y="-1" x="-1"/>
  <g display="none" overflow="visible" y="0" x="0" height="100%" width="100%" id="canvasGrid">
   <rect fill="url(#gridpattern)" stroke-width="0" y="0" x="0" height="100%" width="100%"/>
  </g>
 </g>
 <g>
  <title>Layer 1</title>
  <g stroke="null" id="svg_99">
   <g stroke="null" transform="matrix(0.38827778630083587,0,0,0.3890437375951459,-252.78443009143842,-252.89095601300386) " id="svg_72">
    <g stroke="null" id="svg_73">
     <path fill="#ffa500" stroke="null" id="svg_74" d="m1088.09169,726.05369c-48.351,-48.352 -112.639,-74.981 -181.019,-74.981s-132.668,26.629 -181.019,74.981c-48.353,48.351 -74.981,112.639 -74.981,181.019s26.628,132.668 74.981,181.019c48.351,48.352 112.639,74.981 181.019,74.981s132.668,-26.629 181.019,-74.981c48.353,-48.351 74.981,-112.639 74.981,-181.019s-26.628,-132.668 -74.981,-181.019zm-181.019,406.543c-124.354,0 -225.524,-101.17 -225.524,-225.524s101.17,-225.524 225.524,-225.524s225.524,101.17 225.524,225.524s-101.17,225.524 -225.524,225.524z"/>
    </g>
   </g>
   <g stroke="null" transform="matrix(0.38827778630083587,0,0,0.3890437375951459,-252.78443009143842,-252.89095601300386) " id="svg_75">
    <g stroke="null" id="svg_76">
     <path fill="#ffa500" stroke="null" id="svg_77" d="m851.69469,839.46869c-24.953,-24.955 -65.556,-24.953 -90.509,0c-5.951,5.95 -5.951,15.599 0,21.55c5.952,5.95 15.601,5.95 21.551,0c13.072,-13.071 34.34,-13.07 47.41,0c2.976,2.976 6.875,4.464 10.774,4.464s7.8,-1.488 10.774,-4.464c5.951,-5.951 5.951,-15.599 0,-21.55z"/>
    </g>
   </g>
   <g stroke="null" transform="matrix(0.38827778630083587,0,0,0.3890437375951459,-252.78443009143842,-252.89095601300386) " id="svg_78">
    <g stroke="null" id="svg_79">
     <path fill="#ffa500" stroke="null" id="svg_80" d="m1052.95669,839.46869c-24.953,-24.953 -65.556,-24.955 -90.509,0c-5.951,5.95 -5.951,15.599 0,21.55c5.952,5.95 15.601,5.95 21.551,0c13.07,-13.071 34.338,-13.072 47.41,0c2.976,2.976 6.875,4.464 10.774,4.464s7.8,-1.488 10.774,-4.464c5.951,-5.951 5.951,-15.599 0,-21.55z"/>
    </g>
   </g>
   <g stroke="null" transform="matrix(0.38827778630083587,0,0,0.3890437375951459,-252.78443009143842,-252.89095601300386) " id="svg_81">
    <g stroke="null" id="svg_82">
     <path fill="#ffa500" stroke="null" id="svg_83" d="m1042.18369,918.24769l-270.222,0c-8.416,0 -15.238,6.823 -15.238,15.238c0,82.902 67.447,150.349 150.349,150.349s150.349,-67.447 150.349,-150.349c0,-8.416 -6.822,-15.238 -15.238,-15.238zm-135.111,135.111c-60.938,0 -111.402,-45.703 -118.909,-104.635l237.819,0c-7.508,58.932 -57.972,104.635 -118.91,104.635z"/>
    </g>
   </g>
   <g stroke="null" transform="matrix(0.38827778630083587,0,0,0.3890437375951459,-252.78443009143842,-252.89095601300386) " id="svg_84"/>
   <g stroke="null" transform="matrix(0.38827778630083587,0,0,0.3890437375951459,-252.78443009143842,-252.89095601300386) " id="svg_85"/>
   <g stroke="null" transform="matrix(0.38827778630083587,0,0,0.3890437375951459,-252.78443009143842,-252.89095601300386) " id="svg_86"/>
   <g stroke="null" transform="matrix(0.38827778630083587,0,0,0.3890437375951459,-252.78443009143842,-252.89095601300386) " id="svg_87"/>
   <g stroke="null" transform="matrix(0.38827778630083587,0,0,0.3890437375951459,-252.78443009143842,-252.89095601300386) " id="svg_88"/>
   <g stroke="null" transform="matrix(0.38827778630083587,0,0,0.3890437375951459,-252.78443009143842,-252.89095601300386) " id="svg_89"/>
   <g stroke="null" transform="matrix(0.38827778630083587,0,0,0.3890437375951459,-252.78443009143842,-252.89095601300386) " id="svg_90"/>
   <g stroke="null" transform="matrix(0.38827778630083587,0,0,0.3890437375951459,-252.78443009143842,-252.89095601300386) " id="svg_91"/>
   <g stroke="null" transform="matrix(0.38827778630083587,0,0,0.3890437375951459,-252.78443009143842,-252.89095601300386) " id="svg_92"/>
   <g stroke="null" transform="matrix(0.38827778630083587,0,0,0.3890437375951459,-252.78443009143842,-252.89095601300386) " id="svg_93"/>
   <g stroke="null" transform="matrix(0.38827778630083587,0,0,0.3890437375951459,-252.78443009143842,-252.89095601300386) " id="svg_94"/>
   <g stroke="null" transform="matrix(0.38827778630083587,0,0,0.3890437375951459,-252.78443009143842,-252.89095601300386) " id="svg_95"/>
   <g stroke="null" transform="matrix(0.38827778630083587,0,0,0.3890437375951459,-252.78443009143842,-252.89095601300386) " id="svg_96"/>
   <g stroke="null" transform="matrix(0.38827778630083587,0,0,0.3890437375951459,-252.78443009143842,-252.89095601300386) " id="svg_97"/>
   <g stroke="null" transform="matrix(0.38827778630083587,0,0,0.3890437375951459,-252.78443009143842,-252.89095601300386) " id="svg_98"/>
  </g>
 </g>
</svg>