<svg width="200" height="200" xmlns="http://www.w3.org/2000/svg">
 <!-- Created with Method Draw - http://github.com/duopixel/Method-Draw/ -->

 <g>
  <title>background</title>
  <rect fill="none" id="canvas_background" height="202" width="202" y="-1" x="-1"/>
  <g display="none" overflow="visible" y="0" x="0" height="100%" width="100%" id="canvasGrid">
   <rect fill="url(#gridpattern)" stroke-width="0" y="0" x="0" height="100%" width="100%"/>
  </g>
 </g>
 <g>
  <title>Layer 1</title>
  <g stroke="null" id="svg_147">
   <g stroke="null" transform="matrix(0.3867450989560834,0,0,0.3836818086540096,-251.39553879834256,-247.8325847953164) " id="svg_137">
    <g stroke="null" id="svg_138">
     <g stroke="null" id="svg_139">
      <path fill="#ffa500" stroke="null" d="m945.07587,907.07623c0,-6.852 -1.833,-13.281 -5.019,-18.838l79.091,-79.091c3.905,-3.905 3.905,-10.237 0,-14.143c-3.905,-3.904 -10.237,-3.904 -14.143,0l-79.091,79.091c-5.557,-3.186 -11.986,-5.019 -18.838,-5.019s-13.281,1.833 -18.838,5.019l-39.591,-39.591c-3.905,-3.904 -10.237,-3.904 -14.143,0c-3.905,3.905 -3.905,10.237 0,14.143l39.591,39.591c-3.186,5.557 -5.019,11.986 -5.019,18.838c0,20.953 17.047,38 38,38s38,-17.047 38,-38zm-56,0c0,-9.925 8.075,-18 18,-18s18,8.075 18,18s-8.075,18 -18,18s-18,-8.075 -18,-18z" id="svg_145"/>
      <path fill="#ffa500" stroke="null" d="m758.19987,896.89023l-14.124,0c-5.523,0 -10,4.478 -10,10s4.477,10 10,10l14.124,0c5.523,0 10,-4.478 10,-10s-4.478,-10 -10,-10z" id="svg_144"/>
      <path fill="#ffa500" stroke="null" d="m907.26187,768.19923c5.523,0 10,-4.478 10,-10l0,-14.123c0,-5.522 -4.477,-10 -10,-10s-10,4.478 -10,10l0,14.123c0,5.523 4.477,10 10,10z" id="svg_143"/>
      <path fill="#ffa500" stroke="null" d="m1159.19587,994.47923l-9.016,-6.977c8.557,-25.871 12.896,-52.897 12.896,-80.426c0,-68.38 -26.629,-132.667 -74.981,-181.02c-48.352,-48.351 -112.639,-74.98 -181.019,-74.98c-53.577,0 -104.885,16.377 -148.377,47.361c-4.498,3.204 -5.547,9.448 -2.342,13.946c3.205,4.5 9.449,5.547 13.947,2.343c40.084,-28.556 87.379,-43.65 136.772,-43.65c130.131,0 236,105.869 236,236c0,22.994 -3.29,45.597 -9.766,67.37l-21.857,-16.914c4.043,-16.434 6.116,-33.382 6.116,-50.457c0,-116.066 -94.427,-210.494 -210.494,-210.494s-210.493,94.429 -210.493,210.495s94.428,210.494 210.494,210.494c7.452,0 14.925,-0.403 22.328,-1.183l0,25.643c-7.403,0.693 -14.883,1.046 -22.328,1.046c-130.131,0 -236,-105.869 -236,-236c0,-49.727 15.281,-97.282 44.19,-137.527c3.222,-4.485 2.198,-10.733 -2.288,-13.956s-10.734,-2.198 -13.956,2.288c-31.366,43.666 -47.946,95.257 -47.946,149.195c0,68.38 26.629,132.667 74.981,181.02c48.352,48.351 112.639,74.98 181.019,74.98c9.069,0 18.187,-0.487 27.185,-1.436c1.504,0.906 3.26,1.436 5.143,1.436l181.721,0c5.523,0 10,-4.478 10,-10l0,-40c0,-5.522 -4.477,-10 -10,-10s-10,4.478 -10,10l0,30l-38.86,0l0,-78c0,-5.522 -4.477,-10 -10,-10l-64,0c-5.523,0 -10,4.478 -10,10l0,78l-38.861,0l0,-109.179l80.672,-62.427l93.672,72.487c1.763,1.365 3.919,2.092 6.12,2.092c0.511,0 1.025,-0.039 1.537,-0.119c2.715,-0.422 5.136,-1.942 6.696,-4.205l23.208,-33.662c3.014,-4.371 2.086,-10.335 -2.113,-13.584zm-150.931,80.597l44,0l0,68l-44,0l0,-68zm-101.189,22.494c-105.039,0 -190.494,-85.455 -190.494,-190.494s85.455,-190.494 190.494,-190.494s190.494,85.455 190.494,190.494c0,12.452 -1.206,24.828 -3.583,36.94l-57.79,-44.721c-3.604,-2.789 -8.637,-2.789 -12.24,0l-123,95.184c-4.199,3.249 -5.126,9.213 -2.113,13.584l23.208,33.662c1.56,2.263 3.981,3.783 6.696,4.205c0.219,0.034 0.438,0.049 0.658,0.068l0,50.276c-7.391,0.861 -14.872,1.296 -22.33,1.296zm220.557,-75.896l-91.437,-70.757c-1.802,-1.395 -3.961,-2.092 -6.12,-2.092s-4.318,0.697 -6.12,2.092l-91.437,70.757l-11.838,-17.171l109.395,-84.655l109.395,84.655l-11.838,17.171z" id="svg_142"/>
      <path fill="#ffa500" stroke="null" d="m1121.12587,1063.07623c-2.63,0 -5.21,1.069 -7.07,2.93c-1.86,1.86 -2.93,4.44 -2.93,7.07s1.07,5.21 2.93,7.069c1.86,1.86 4.44,2.931 7.07,2.931s5.21,-1.07 7.07,-2.931c1.86,-1.859 2.93,-4.439 2.93,-7.069s-1.07,-5.21 -2.93,-7.07c-1.86,-1.86 -4.44,-2.93 -7.07,-2.93z" id="svg_141"/>
      <path fill="#ffa500" stroke="null" d="m733.12587,743.12623c2.63,0 5.21,-1.07 7.07,-2.93c1.86,-1.86 2.93,-4.44 2.93,-7.07s-1.07,-5.21 -2.93,-7.07c-1.86,-1.859 -4.43,-2.93 -7.07,-2.93c-2.63,0 -5.21,1.07 -7.07,2.93c-1.86,1.86 -2.93,4.44 -2.93,7.07s1.07,5.21 2.93,7.07c1.86,1.86 4.44,2.93 7.07,2.93z" id="svg_140"/>
     </g>
    </g>
   </g>
  </g>
 </g>
</svg>