<svg width="200" height="200" xmlns="http://www.w3.org/2000/svg">
 <!-- Created with Method Draw - http://github.com/duopixel/Method-Draw/ -->

 <g>
  <title>background</title>
  <rect fill="none" id="canvas_background" height="202" width="202" y="-1" x="-1"/>
  <g display="none" overflow="visible" y="0" x="0" height="100%" width="100%" id="canvasGrid">
   <rect fill="url(#gridpattern)" stroke-width="0" y="0" x="0" height="100%" width="100%"/>
  </g>
 </g>
 <g>
  <title>Layer 1</title>
  <g stroke="null" id="svg_67">
   <g stroke="null" transform="matrix(0.4205418159097903,0,0,0.38625400331504806,-2379.5531098075844,-2176.8486399555045) " id="svg_49">
    <g stroke="null" id="svg_50">
     <path fill="#ffa500" stroke="null" id="svg_51" d="m6120.82702,5706.88302c-124.826,0 -180.642,-64.563 -181.18,-65.195c-3.243,-3.891 -9.865,-3.891 -13.107,0c-0.546,0.648 -55.782,65.195 -181.18,65.195c-4.71,0 -8.533,3.823 -8.533,8.533l0,162.138c0,-4.719 -3.823,-8.533 -8.533,-8.533l-59.734,0c-4.71,0 -8.533,3.814 -8.533,8.533l0,170.667c0,4.71 3.823,8.533 8.533,8.533l59.733,0c4.71,0 8.533,-3.823 8.533,-8.533l0,-8.538l47.703,0c16.424,25.015 36.365,46.842 59.356,64.905c27.025,21.239 56.218,36.608 86.776,45.67c0.802,0.239 1.613,0.358 2.432,0.358s1.63,-0.12 2.432,-0.358c30.558,-9.062 59.75,-24.431 86.775,-45.67c67.038,-52.676 107.059,-137.284 107.059,-226.313l0,-162.859c0.001,-4.71 -3.822,-8.533 -8.532,-8.533zm-383.876,179.857l-0.125,0l0,-8.465c0.001,2.825 0.045,5.647 0.125,8.465zm-17.191,152.947l-42.667,0l0,-153.6l42.667,0l0,9.186l0,135.877l0,8.537zm17.067,-135.914l0.35,0c1.323,0.111 13.039,0.904 24.798,-9.788c15.462,-14.063 23.305,-40.721 23.305,-79.215c0,-10.402 1.92,-22.554 7.33,-22.554l1.152,0c8.021,0 18.748,13.892 20.506,26.547c2.227,16.06 2.782,40.832 -0.469,57.114c-0.119,0.555 -0.171,1.109 -0.171,1.673l0,17.067c0,4.71 3.823,8.533 8.533,8.533l68.267,0c4.702,0 8.533,3.831 8.533,8.533c0,4.702 -3.831,8.533 -8.533,8.533l-68.268,0c-4.71,0 -8.533,3.823 -8.533,8.533c0,4.71 3.823,8.533 8.533,8.533l68.267,0c4.702,0 8.533,3.831 8.533,8.533s-3.831,8.533 -8.533,8.533l-68.267,0c-4.71,0 -8.533,3.823 -8.533,8.533s3.823,8.533 8.533,8.533l68.267,0c4.702,0 8.533,3.831 8.533,8.533s-3.831,8.533 -8.533,8.533l-68.267,0c-4.71,0 -8.533,3.823 -8.533,8.533s3.823,8.533 8.533,8.533l68.267,0c4.702,0 8.533,3.831 8.533,8.533c0,4.702 -3.831,8.533 -8.533,8.533l-153.6,0l0,-118.839zm172.663,93.243c4.062,-4.531 6.536,-10.513 6.536,-17.067c0,-6.554 -2.475,-12.536 -6.536,-17.067c4.062,-4.531 6.536,-10.513 6.536,-17.067c0,-6.554 -2.475,-12.535 -6.536,-17.067c4.062,-4.531 6.536,-10.513 6.536,-17.067c0,-14.114 -11.486,-25.6 -25.6,-25.6l-59.733,0l0,-7.706c3.61,-18.935 2.799,-45.269 0.478,-61.961c-2.136,-15.41 -12.585,-32.204 -26.078,-38.592l0,-6.944c58.871,-8.713 101.333,-29.397 128,-46.669c26.667,17.271 69.129,37.956 128,46.669l0,107.392c0,68.258 -30.268,132.796 -80.973,172.646c-15.002,11.785 -30.805,21.146 -47.027,27.87c-16.222,-6.724 -32.026,-16.085 -47.019,-27.87c-4.474,-3.515 -8.827,-7.273 -13.044,-11.236l17.396,0c14.114,0 25.6,-11.486 25.6,-25.6c0.001,-6.551 -2.474,-12.532 -6.536,-17.064zm202.803,-118.741c0,83.831 -37.581,163.422 -100.54,212.898c-24.602,19.337 -51.055,33.459 -78.66,41.993c-27.605,-8.533 -54.059,-22.656 -78.66,-41.993c-18.621,-14.633 -35.119,-31.913 -49.206,-51.49l43.893,0c8.202,9.026 17.061,17.31 26.407,24.659c17.254,13.559 35.575,24.192 54.451,31.59c0.998,0.393 2.057,0.589 3.115,0.589c1.058,0 2.116,-0.196 3.115,-0.589c18.867,-7.398 37.188,-18.031 54.46,-31.59c54.784,-43.059 87.492,-112.623 87.492,-186.069l0,-114.825c0,-4.301 -3.191,-7.919 -7.458,-8.465c-63.155,-8.055 -107.085,-30.583 -132.813,-48.068c-2.893,-1.971 -6.699,-1.971 -9.591,0c-25.728,17.485 -69.658,40.013 -132.813,48.068c-4.267,0.546 -7.458,4.164 -7.458,8.465l0,12.16c-8.885,1.83 -19.814,10.008 -19.814,39.162c0,36.07 -7.234,54.003 -14.319,62.916l0,-153.83c104.465,-2.321 160.981,-46.908 179.2,-64.393c18.219,17.485 74.735,62.071 179.2,64.393l0,154.419l-0.001,0z"/>
    </g>
   </g>
   <g stroke="null" transform="matrix(0.4205418159097903,0,0,0.38625400331504806,-2379.5531098075844,-2176.8486399555045) " id="svg_52"/>
   <g stroke="null" transform="matrix(0.4205418159097903,0,0,0.38625400331504806,-2379.5531098075844,-2176.8486399555045) " id="svg_53"/>
   <g stroke="null" transform="matrix(0.4205418159097903,0,0,0.38625400331504806,-2379.5531098075844,-2176.8486399555045) " id="svg_54"/>
   <g stroke="null" transform="matrix(0.4205418159097903,0,0,0.38625400331504806,-2379.5531098075844,-2176.8486399555045) " id="svg_55"/>
   <g stroke="null" transform="matrix(0.4205418159097903,0,0,0.38625400331504806,-2379.5531098075844,-2176.8486399555045) " id="svg_56"/>
   <g stroke="null" transform="matrix(0.4205418159097903,0,0,0.38625400331504806,-2379.5531098075844,-2176.8486399555045) " id="svg_57"/>
   <g stroke="null" transform="matrix(0.4205418159097903,0,0,0.38625400331504806,-2379.5531098075844,-2176.8486399555045) " id="svg_58"/>
   <g stroke="null" transform="matrix(0.4205418159097903,0,0,0.38625400331504806,-2379.5531098075844,-2176.8486399555045) " id="svg_59"/>
   <g stroke="null" transform="matrix(0.4205418159097903,0,0,0.38625400331504806,-2379.5531098075844,-2176.8486399555045) " id="svg_60"/>
   <g stroke="null" transform="matrix(0.4205418159097903,0,0,0.38625400331504806,-2379.5531098075844,-2176.8486399555045) " id="svg_61"/>
   <g stroke="null" transform="matrix(0.4205418159097903,0,0,0.38625400331504806,-2379.5531098075844,-2176.8486399555045) " id="svg_62"/>
   <g stroke="null" transform="matrix(0.4205418159097903,0,0,0.38625400331504806,-2379.5531098075844,-2176.8486399555045) " id="svg_63"/>
   <g stroke="null" transform="matrix(0.4205418159097903,0,0,0.38625400331504806,-2379.5531098075844,-2176.8486399555045) " id="svg_64"/>
   <g stroke="null" transform="matrix(0.4205418159097903,0,0,0.38625400331504806,-2379.5531098075844,-2176.8486399555045) " id="svg_65"/>
   <g stroke="null" transform="matrix(0.4205418159097903,0,0,0.38625400331504806,-2379.5531098075844,-2176.8486399555045) " id="svg_66"/>
  </g>
 </g>
</svg>