<svg width="200" height="150" xmlns="http://www.w3.org/2000/svg">
 <!-- Created with Method Draw - http://github.com/duopixel/Method-Draw/ -->

 <g>
  <title>background</title>
  <rect fill="none" id="canvas_background" height="152" width="202" y="-1" x="-1"/>
  <g display="none" overflow="visible" y="0" x="0" height="100%" width="100%" id="canvasGrid">
   <rect fill="url(#gridpattern)" stroke-width="0" y="0" x="0" height="100%" width="100%"/>
  </g>
 </g>
 <g>
  <title>Layer 1</title>
  <!-- Generator: Sketch 51.3 (57544) - http://www.bohemiancoding.com/sketch -->
  <desc transform="matrix(0.6944444113307533,0,0,0.6944444113307533,0,0) ">Created with Sketch.</desc>

  <g stroke="null" id="svg_171">
   <g stroke="null" transform="matrix(3.2669778668726837,0,0,2.4402718040898317,24.128857614655164,32.6321239821229) " id="svg_154">
    <path fill="#ffa500" stroke="null" id="svg_156" d="m23.04049,39.27987c-2.206,0 -4,-1.794 -4,-4s1.794,-4 4,-4s4,1.794 4,4s-1.794,4 -4,4zm0,-6c-1.103,0 -2,0.897 -2,2s0.897,2 2,2s2,-0.897 2,-2s-0.897,-2 -2,-2z"/>
    <path fill="#ffa500" stroke="null" id="svg_157" d="m39.04049,47.27987l-32,0c-0.552,0 -1,-0.447 -1,-1l0,-22c0,-0.553 0.448,-1 1,-1l32,0c0.552,0 1,0.447 1,1l0,22c0,0.553 -0.448,1 -1,1zm-31,-2l30,0l0,-20l-30,0l0,20z"/>
    <path fill="#ffa500" stroke="null" id="svg_158" d="m31.04049,43.27987l-16,0c-0.552,0 -1,-0.447 -1,-1c0,-1.654 -1.346,-3 -3,-3c-0.552,0 -1,-0.447 -1,-1l0,-6c0,-0.553 0.448,-1 1,-1c1.654,0 3,-1.346 3,-3c0,-0.553 0.448,-1 1,-1l16,0c0.552,0 1,0.447 1,1c0,1.654 1.346,3 3,3c0.552,0 1,0.447 1,1l0,6c0,0.553 -0.448,1 -1,1c-1.654,0 -3,1.346 -3,3c0,0.553 -0.448,1 -1,1zm-15.101,-2l14.201,0c0.398,-1.956 1.943,-3.501 3.899,-3.899l0,-4.201c-1.956,-0.398 -3.501,-1.943 -3.899,-3.899l-14.201,0c-0.398,1.956 -1.943,3.501 -3.899,3.899l0,4.201c1.956,0.398 3.501,1.943 3.899,3.899z"/>
    <path fill="#ffa500" stroke="null" id="svg_159" d="m35.04049,15.27987l-22,0c-0.552,0 -1,-0.447 -1,-1l0,-17c0,-0.3 0.135,-0.584 0.367,-0.774l11,-9c0.368,-0.301 0.898,-0.301 1.267,0l11,9c0.231,0.19 0.366,0.474 0.366,0.774l0,17c0,0.553 -0.448,1 -1,1zm-21,-2l20,0l0,-15.526l-10,-8.182l-10,8.182l0,15.526z"/>
    <path fill="#ffa500" stroke="null" id="svg_160" d="m27.04049,15.27987l-6,0c-0.552,0 -1,-0.447 -1,-1l0,-10c0,-0.553 0.448,-1 1,-1l6,0c0.552,0 1,0.447 1,1l0,10c0,0.553 -0.448,1 -1,1zm-5,-2l4,0l0,-8l-4,0l0,8z"/>
    <path fill="#ffa500" stroke="null" id="svg_161" d="m8.04049,2.27987c-0.291,0 -0.579,-0.126 -0.776,-0.369c-0.349,-0.429 -0.283,-1.059 0.146,-1.407l16,-13c0.427,-0.348 1.059,-0.283 1.406,0.146c0.349,0.429 0.283,1.059 -0.146,1.407l-16,13c-0.185,0.15 -0.408,0.223 -0.63,0.223z"/>
    <path fill="#ffa500" stroke="null" id="svg_162" d="m40.03949,2.27987c-0.222,0 -0.445,-0.073 -0.63,-0.224l-16,-13c-0.429,-0.349 -0.494,-0.979 -0.146,-1.407c0.348,-0.428 0.979,-0.492 1.406,-0.146l16,13c0.429,0.349 0.494,0.979 0.146,1.407c-0.196,0.244 -0.485,0.37 -0.776,0.37z"/>
    <path fill="#ffa500" stroke="null" id="svg_163" d="m47.04049,33.27987c-0.253,0 -0.507,-0.096 -0.701,-0.287c-0.394,-0.388 -0.399,-1.021 -0.012,-1.414c3.099,-3.149 4.815,-7.348 4.708,-11.519c-0.096,-3.744 -1.645,-7.178 -4.362,-9.67l-2.351,-2.413c-0.385,-0.396 -0.376,-1.028 0.02,-1.414c0.396,-0.385 1.028,-0.376 1.414,0.02l2.31,2.373c3.08,2.822 4.859,6.762 4.969,11.053c0.121,4.711 -1.805,9.439 -5.282,12.973c-0.196,0.198 -0.454,0.298 -0.713,0.298z"/>
    <path fill="#ffa500" stroke="null" id="svg_164" d="m51.04149,9.27987c-0.054,0 -0.11,-0.004 -0.166,-0.014l-6,-1c-0.544,-0.091 -0.913,-0.606 -0.822,-1.15s0.604,-0.916 1.151,-0.822l6,1c0.544,0.091 0.913,0.606 0.822,1.15c-0.081,0.489 -0.505,0.836 -0.985,0.836z"/>
    <path fill="#ffa500" stroke="null" id="svg_165" d="m46.03949,15.27987c-0.489,0 -0.917,-0.359 -0.988,-0.858l-1,-7c-0.078,-0.547 0.302,-1.054 0.848,-1.132c0.549,-0.074 1.053,0.302 1.131,0.849l1,7c0.078,0.547 -0.302,1.054 -0.848,1.132c-0.049,0.006 -0.096,0.009 -0.143,0.009z"/>
    <path fill="#ffa500" stroke="null" id="svg_166" d="m1.04049,33.27987c-0.26,0 -0.521,-0.102 -0.717,-0.303l-2.31,-2.373c-3.08,-2.822 -4.859,-6.762 -4.969,-11.053c-0.121,-4.711 1.805,-9.439 5.282,-12.973c0.388,-0.394 1.021,-0.397 1.414,-0.012c0.394,0.388 0.399,1.021 0.012,1.414c-3.099,3.149 -4.815,7.348 -4.708,11.519c0.096,3.744 1.645,7.178 4.362,9.67l2.351,2.413c0.385,0.396 0.376,1.028 -0.02,1.414c-0.194,0.19 -0.445,0.284 -0.697,0.284z"/>
    <path fill="#ffa500" stroke="null" id="svg_167" d="m1.04149,33.27987c-0.054,0 -0.11,-0.004 -0.166,-0.014l-6,-1c-0.544,-0.091 -0.913,-0.606 -0.822,-1.15s0.603,-0.916 1.151,-0.822l6,1c0.544,0.091 0.913,0.606 0.822,1.15c-0.081,0.489 -0.505,0.836 -0.985,0.836z"/>
    <path fill="#ffa500" stroke="null" id="svg_168" d="m1.03949,33.27987c-0.489,0 -0.917,-0.359 -0.988,-0.858l-1,-7c-0.078,-0.547 0.302,-1.054 0.848,-1.132c0.55,-0.073 1.053,0.302 1.131,0.849l1,7c0.078,0.547 -0.302,1.054 -0.848,1.132c-0.048,0.006 -0.096,0.009 -0.143,0.009z"/>
    <path fill="#ffa500" stroke="null" id="svg_169" d="m38.04049,15.27987l-28,0c-0.552,0 -1,-0.447 -1,-1s0.448,-1 1,-1l28,0c0.552,0 1,0.447 1,1s-0.448,1 -1,1z"/>
    <path fill="#ffa500" stroke="null" id="svg_170" d="m26.04049,0.27987l-4,0c-0.552,0 -1,-0.447 -1,-1l0,-4c0,-0.553 0.448,-1 1,-1l4,0c0.552,0 1,0.447 1,1l0,4c0,0.553 -0.448,1 -1,1zm-3,-2l2,0l0,-2l-2,0l0,2z"/>
   </g>
  </g>
 </g>
</svg>