<svg width="200" height="150" xmlns="http://www.w3.org/2000/svg">
 <!-- Created with Method Draw - http://github.com/duopixel/Method-Draw/ -->

 <g>
  <title>background</title>
  <rect fill="none" id="canvas_background" height="152" width="202" y="-1" x="-1"/>
  <g display="none" overflow="visible" y="0" x="0" height="100%" width="100%" id="canvasGrid">
   <rect fill="url(#gridpattern)" stroke-width="0" y="0" x="0" height="100%" width="100%"/>
  </g>
 </g>
 <g>
  <title>Layer 1</title>
  <!-- Generator: Sketch 51.3 (57544) - http://www.bohemiancoding.com/sketch -->
  <desc transform="matrix(0.6944444113307533,0,0,0.6944444113307533,0,0) ">Created with Sketch.</desc>

  <g stroke="null" id="svg_142">
   <g stroke="null" transform="matrix(0.3853696931837933,0,0,0.28467163264507145,-546.4902701383105,-283.0597756369898) " id="svg_139">
    <path fill="#ffa500" stroke="null" id="svg_140" d="m1888.7356,1044.98149c-57.512,-57.51 -151.088,-57.51 -208.6,0c-23.846,23.846 -38.456,54.127 -42.251,87.57c-3.23,28.464 1.973,57.472 14.703,82.898l-230.325,230.326l65.679,65.679l26.754,-26.754l29.049,29.049l62.338,-62.338l-29.049,-29.049l21.375,-21.375l29.049,29.049l62.338,-62.338l-29.049,-29.049l57.52,-57.521c25.427,12.729 54.435,17.934 82.898,14.703c33.443,-3.795 63.725,-18.405 87.57,-42.251c57.512,-57.51 57.512,-151.088 0.001,-208.599zm-21.213,187.387c-38.449,38.45 -97.701,45.59 -144.089,17.363l-10.069,-6.127l-95.044,95.045l29.049,29.049l-19.912,19.912l-29.049,-29.049l-63.802,63.801l29.049,29.049l-19.911,19.912l-29.049,-29.049l-26.754,26.754l-23.252,-23.253l225.423,-225.423l-6.127,-10.069c-28.227,-46.388 -21.086,-105.639 17.363,-144.089c45.814,-45.813 120.359,-45.813 166.174,0c45.814,45.815 45.814,120.36 0,166.174z"/>
    <path fill="#ffa500" stroke="null" id="svg_141" d="m1778.1866,1086.04049c-19.158,19.158 -19.158,50.331 0,69.491c9.58,9.578 22.162,14.368 34.745,14.368s25.166,-4.79 34.745,-14.369l0.001,0c19.157,-19.159 19.157,-50.332 -0.001,-69.49s-50.332,-19.157 -69.49,0zm48.278,48.277c-7.463,7.463 -19.604,7.461 -27.063,0c-7.462,-7.462 -7.462,-19.603 -0.001,-27.063c3.731,-3.731 8.631,-5.597 13.532,-5.597c4.9,0 9.802,1.865 13.532,5.596c7.46,7.462 7.46,19.602 0,27.064z"/>
   </g>
  </g>
 </g>
</svg>