<svg width="200" height="150" xmlns="http://www.w3.org/2000/svg">
 <!-- Created with Method Draw - http://github.com/duopixel/Method-Draw/ -->

 <g>
  <title>background</title>
  <rect fill="none" id="canvas_background" height="152" width="202" y="-1" x="-1"/>
  <g display="none" overflow="visible" y="0" x="0" height="100%" width="100%" id="canvasGrid">
   <rect fill="url(#gridpattern)" stroke-width="0" y="0" x="0" height="100%" width="100%"/>
  </g>
 </g>
 <g>
  <title>Layer 1</title>
  <!-- Generator: Sketch 51.3 (57544) - http://www.bohemiancoding.com/sketch -->
  <desc transform="matrix(0.6944444113307533,0,0,0.6944444113307533,0,0) ">Created with Sketch.</desc>

  <g stroke="null" id="svg_150">
   <g stroke="null" transform="matrix(0.9716808000814565,0,0,0.5190743977979413,-388.8569076481832,-120.46082633987538) " id="svg_146">
    <path fill="#ffa500" stroke="null" id="svg_147" d="m600.00025,338.39871l-93.71,-70.666c-2.494,-1.882 -5.935,-1.882 -8.429,0l-93.71,70.666c-1.754,1.323 -2.786,3.392 -2.786,5.589l0,118.977c0,3.866 3.134,7 7,7l187.421,0c3.866,0 7,-3.134 7,-7l0,-118.977c-0.001,-2.197 -1.032,-4.266 -2.786,-5.589zm-86.461,117.565l-22.928,0l0,-50.76l22.928,0l0,50.76zm75.246,0l-61.247,0l0,-57.76c0,-3.866 -3.134,-7 -7,-7l-36.927,0c-3.866,0 -7,3.134 -7,7l0,57.76l-61.247,0l0,-108.487l86.71,-65.387l86.71,65.387l0,108.487l0.001,0z"/>
    <path fill="#ffa500" stroke="null" id="svg_148" d="m412.57925,319.76771l89.496,-67.487l89.496,67.487c1.262,0.952 2.741,1.412 4.209,1.412c2.122,0 4.218,-0.961 5.594,-2.786c2.328,-3.086 1.712,-7.476 -1.375,-9.803l-93.71,-70.666c-2.494,-1.882 -5.935,-1.882 -8.429,0l-93.71,70.666c-3.087,2.328 -3.702,6.717 -1.375,9.803c2.328,3.086 6.716,3.701 9.804,1.374z"/>
    <path fill="#ffa500" stroke="null" id="svg_149" d="m579.01225,475.84771c-2.733,-2.733 -7.166,-2.733 -9.899,0c-2.734,2.733 -2.734,7.166 0,9.899l2.452,2.452l-138.979,0l2.452,-2.452c2.734,-2.733 2.734,-7.166 0,-9.899c-2.733,-2.733 -7.166,-2.733 -9.899,0l-14.401,14.401c-2.734,2.733 -2.734,7.166 0,9.899l14.401,14.402c1.367,1.367 3.158,2.05 4.95,2.05c1.791,0 3.583,-0.684 4.95,-2.05c2.734,-2.733 2.734,-7.166 0,-9.899l-2.452,-2.452l138.979,0l-2.452,2.452c-2.734,2.734 -2.734,7.166 0,9.899c1.367,1.367 3.158,2.05 4.95,2.05s3.583,-0.684 4.95,-2.05l14.401,-14.402c2.734,-2.734 2.734,-7.166 0,-9.899l-14.403,-14.401z"/>
   </g>
  </g>
 </g>
</svg>