<svg width="200" height="150" xmlns="http://www.w3.org/2000/svg">
 <!-- Created with Method Draw - http://github.com/duopixel/Method-Draw/ -->

 <g>
  <title>background</title>
  <rect fill="none" id="canvas_background" height="152" width="202" y="-1" x="-1"/>
  <g display="none" overflow="visible" y="0" x="0" height="100%" width="100%" id="canvasGrid">
   <rect fill="url(#gridpattern)" stroke-width="0" y="0" x="0" height="100%" width="100%"/>
  </g>
 </g>
 <g>
  <title>Layer 1</title>
  <!-- Generator: Sketch 51.3 (57544) - http://www.bohemiancoding.com/sketch -->
  <desc transform="matrix(0.6944444113307533,0,0,0.6944444113307533,0,0) ">Created with Sketch.</desc>

  <g stroke="null" id="svg_118">
   <g stroke="null" transform="matrix(0.4094834912763833,0,0,0.3061501298638123,-503.8077254819218,-263.97742800603385) " id="svg_16">
    <g stroke="null" id="svg_17">
     <rect fill="#ffa500" stroke="null" id="svg_18" height="16" width="16" y="1025.91962" x="1402.55945"/>
    </g>
   </g>
   <g stroke="null" transform="matrix(0.4094834912763833,0,0,0.3061501298638123,-503.8077254819218,-263.97742800603385) " id="svg_19">
    <g stroke="null" id="svg_20">
     <rect fill="#ffa500" stroke="null" id="svg_21" height="16" width="16" y="1057.91962" x="1402.55945"/>
    </g>
   </g>
   <g stroke="null" transform="matrix(0.4094834912763833,0,0,0.3061501298638123,-503.8077254819218,-263.97742800603385) " id="svg_22">
    <g stroke="null" id="svg_23">
     <rect fill="#ffa500" stroke="null" id="svg_24" height="16" width="16" y="1089.91962" x="1402.55945"/>
    </g>
   </g>
   <g stroke="null" transform="matrix(0.4094834912763833,0,0,0.3061501298638123,-503.8077254819218,-263.97742800603385) " id="svg_25">
    <g stroke="null" id="svg_26">
     <rect fill="#ffa500" stroke="null" id="svg_27" height="16" width="16" y="1121.91962" x="1402.55945"/>
    </g>
   </g>
   <g stroke="null" transform="matrix(0.4094834912763833,0,0,0.3061501298638123,-503.8077254819218,-263.97742800603385) " id="svg_28">
    <g stroke="null" id="svg_29">
     <rect fill="#ffa500" stroke="null" id="svg_30" height="16" width="16" y="1025.91962" x="1434.55945"/>
    </g>
   </g>
   <g stroke="null" transform="matrix(0.4094834912763833,0,0,0.3061501298638123,-503.8077254819218,-263.97742800603385) " id="svg_31">
    <g stroke="null" id="svg_32">
     <rect fill="#ffa500" stroke="null" id="svg_33" height="16" width="16" y="1057.91962" x="1434.55945"/>
    </g>
   </g>
   <g stroke="null" transform="matrix(0.4094834912763833,0,0,0.3061501298638123,-503.8077254819218,-263.97742800603385) " id="svg_34">
    <g stroke="null" id="svg_35">
     <rect fill="#ffa500" stroke="null" id="svg_36" height="16" width="16" y="1089.91962" x="1434.55945"/>
    </g>
   </g>
   <g stroke="null" transform="matrix(0.4094834912763833,0,0,0.3061501298638123,-503.8077254819218,-263.97742800603385) " id="svg_37">
    <g stroke="null" id="svg_38">
     <rect fill="#ffa500" stroke="null" id="svg_39" height="16" width="16" y="1121.91962" x="1434.55945"/>
    </g>
   </g>
   <g stroke="null" transform="matrix(0.4094834912763833,0,0,0.3061501298638123,-503.8077254819218,-263.97742800603385) " id="svg_40">
    <g stroke="null" id="svg_41">
     <rect fill="#ffa500" stroke="null" id="svg_42" height="16" width="16" y="1025.91962" x="1466.55945"/>
    </g>
   </g>
   <g stroke="null" transform="matrix(0.4094834912763833,0,0,0.3061501298638123,-503.8077254819218,-263.97742800603385) " id="svg_43">
    <g stroke="null" id="svg_44">
     <rect fill="#ffa500" stroke="null" id="svg_45" height="16" width="16" y="1057.91962" x="1466.55945"/>
    </g>
   </g>
   <g stroke="null" transform="matrix(0.4094834912763833,0,0,0.3061501298638123,-503.8077254819218,-263.97742800603385) " id="svg_46">
    <g stroke="null" id="svg_47">
     <rect fill="#ffa500" stroke="null" id="svg_48" height="16" width="16" y="1089.91962" x="1466.55945"/>
    </g>
   </g>
   <g stroke="null" transform="matrix(0.4094834912763833,0,0,0.3061501298638123,-503.8077254819218,-263.97742800603385) " id="svg_49">
    <g stroke="null" id="svg_50">
     <rect fill="#ffa500" stroke="null" id="svg_51" height="16" width="16" y="1121.91962" x="1466.55945"/>
    </g>
   </g>
   <g stroke="null" transform="matrix(0.4094834912763833,0,0,0.3061501298638123,-503.8077254819218,-263.97742800603385) " id="svg_52">
    <g stroke="null" id="svg_53">
     <rect fill="#ffa500" stroke="null" id="svg_54" height="16" width="16" y="1025.91962" x="1498.55945"/>
    </g>
   </g>
   <g stroke="null" transform="matrix(0.4094834912763833,0,0,0.3061501298638123,-503.8077254819218,-263.97742800603385) " id="svg_55">
    <g stroke="null" id="svg_56">
     <rect fill="#ffa500" stroke="null" id="svg_57" height="16" width="16" y="993.91962" x="1434.55945"/>
    </g>
   </g>
   <g stroke="null" transform="matrix(0.4094834912763833,0,0,0.3061501298638123,-503.8077254819218,-263.97742800603385) " id="svg_58">
    <g stroke="null" id="svg_59">
     <rect fill="#ffa500" stroke="null" id="svg_60" height="16" width="16" y="993.91962" x="1466.55945"/>
    </g>
   </g>
   <g stroke="null" transform="matrix(0.4094834912763833,0,0,0.3061501298638123,-503.8077254819218,-263.97742800603385) " id="svg_61">
    <g stroke="null" id="svg_62">
     <rect fill="#ffa500" stroke="null" id="svg_63" height="16" width="16" y="993.91962" x="1498.55945"/>
    </g>
   </g>
   <g stroke="null" transform="matrix(0.4094834912763833,0,0,0.3061501298638123,-503.8077254819218,-263.97742800603385) " id="svg_64">
    <g stroke="null" id="svg_65">
     <rect fill="#ffa500" stroke="null" id="svg_66" height="16" width="16" y="1057.91962" x="1498.55945"/>
    </g>
   </g>
   <g stroke="null" transform="matrix(0.4094834912763833,0,0,0.3061501298638123,-503.8077254819218,-263.97742800603385) " id="svg_67">
    <g stroke="null" id="svg_68">
     <rect fill="#ffa500" stroke="null" id="svg_69" height="16" width="16" y="1089.91962" x="1498.55945"/>
    </g>
   </g>
   <g stroke="null" transform="matrix(0.4094834912763833,0,0,0.3061501298638123,-503.8077254819218,-263.97742800603385) " id="svg_70">
    <g stroke="null" id="svg_71">
     <rect fill="#ffa500" stroke="null" id="svg_72" height="16" width="16" y="1121.91962" x="1498.55945"/>
    </g>
   </g>
   <g stroke="null" transform="matrix(0.4094834912763833,0,0,0.3061501298638123,-503.8077254819218,-263.97742800603385) " id="svg_73">
    <g stroke="null" id="svg_74">
     <rect fill="#ffa500" stroke="null" id="svg_75" height="16" width="16" y="1025.91962" x="1530.55945"/>
    </g>
   </g>
   <g stroke="null" transform="matrix(0.4094834912763833,0,0,0.3061501298638123,-503.8077254819218,-263.97742800603385) " id="svg_76">
    <g stroke="null" id="svg_77">
     <rect fill="#ffa500" stroke="null" id="svg_78" height="16" width="16" y="1057.91962" x="1530.55945"/>
    </g>
   </g>
   <g stroke="null" transform="matrix(0.4094834912763833,0,0,0.3061501298638123,-503.8077254819218,-263.97742800603385) " id="svg_79">
    <g stroke="null" id="svg_80">
     <rect fill="#ffa500" stroke="null" id="svg_81" height="16" width="16" y="1089.91962" x="1530.55945"/>
    </g>
   </g>
   <g stroke="null" transform="matrix(0.4094834912763833,0,0,0.3061501298638123,-503.8077254819218,-263.97742800603385) " id="svg_82">
    <g stroke="null" id="svg_83">
     <rect fill="#ffa500" stroke="null" id="svg_84" height="16" width="16" y="1121.91962" x="1530.55945"/>
    </g>
   </g>
   <g stroke="null" transform="matrix(0.4094834912763833,0,0,0.3061501298638123,-503.8077254819218,-263.97742800603385) " id="svg_85">
    <g stroke="null" id="svg_86">
     <path fill="#ffa500" stroke="null" id="svg_87" d="m1706.56845,985.91962c-0.003,0 -0.006,0 -0.009,0l-120,0l0,-112c0.003,-4.416 -3.575,-7.997 -7.991,-8c-0.003,0 -0.006,0 -0.009,0l-208,0c-4.416,-0.003 -7.997,3.575 -8,7.991c0,0.003 0,0.006 0,0.009l0,112l-120,0c-4.416,-0.003 -7.997,3.575 -8,7.991c0,0.003 0,0.006 0,0.009l0,288c-0.003,4.416 3.575,7.997 7.991,8c0.003,0 0.006,0 0.009,0l16.723,0c-0.464,2.642 -0.706,5.318 -0.723,8l0,40c-0.003,4.416 3.575,7.997 7.991,8c0.003,0 0.006,0 0.009,0l416,0c4.416,0.003 7.997,-3.575 8,-7.991c0,-0.003 0,-0.006 0,-0.009l0,-40c-0.016,-2.682 -0.258,-5.358 -0.723,-8l16.723,0c4.416,0.003 7.997,-3.575 8,-7.991c0,-0.003 0,-0.006 0,-0.009l0,-288c0.003,-4.416 -3.575,-7.997 -7.991,-8zm-128.009,224c0,8.837 -7.163,16 -16,16s-16,-7.163 -16,-16s7.163,-16 16,-16c8.832,0.011 15.989,7.168 16,16zm-192,-16c8.837,0 16,7.163 16,16s-7.163,16 -16,16s-16,-7.163 -16,-16c0.011,-8.832 7.168,-15.989 16,-16zm-48,136l-64,0l0,-32c0,-17.673 14.327,-32 32,-32s32,14.327 32,32l0,32zm-48,-96c0,-8.837 7.163,-16 16,-16s16,7.163 16,16s-7.163,16 -16,16c-8.832,-0.011 -15.989,-7.168 -16,-16zm49.212,29.425c-3.017,-2.91 -6.4,-5.414 -10.064,-7.449c12.202,-12.784 11.731,-33.04 -1.053,-45.243s-33.04,-11.731 -45.243,1.053c-11.803,12.365 -11.803,31.824 0,44.189c-7.636,4.238 -13.98,10.467 -18.358,18.024l-14.494,0l0,-271.999l112,0l0,187.056c-10.986,12.327 -10.615,31.039 0.852,42.92c-12,6.637 -20.599,18.077 -23.64,31.449zm78.788,66.575l-64,0l0,-56c0,-17.673 14.327,-32 32,-32s32,14.327 32,32l0,56zm96,0l-80,0l0,-56c0,-22.091 17.909,-40 40,-40c22.091,0 40,17.909 40,40l0,56zm-64,-136c0,-13.255 10.745,-24 24,-24s24,10.745 24,24s-10.745,24 -24,24c-13.249,-0.014 -23.986,-10.751 -24,-24zm72.722,52.495c-5.357,-9.444 -13.327,-17.139 -22.953,-22.16c16.897,-14.232 19.057,-39.467 4.826,-56.364c-14.232,-16.897 -39.467,-19.057 -56.364,-4.826c-16.897,14.232 -19.057,39.467 -4.826,56.364c1.468,1.743 3.082,3.357 4.826,4.826c-9.626,5.021 -17.596,12.716 -22.953,22.16c-4.206,-6 -9.722,-10.965 -16.13,-14.519c12.265,-12.547 12.037,-32.662 -0.511,-44.927c-8.079,-7.898 -19.744,-10.91 -30.637,-7.913l0,-297.136l192,0l0,297.136c-2.607,-0.719 -5.296,-1.101 -8,-1.136c-17.626,-0.047 -31.953,14.204 -32,31.831c-0.022,8.248 3.151,16.185 8.852,22.145c-6.408,3.554 -11.924,8.519 -16.13,14.519zm71.278,51.505l0,32l-64,0l0,-56c0,-17.673 14.327,-32 32,-32c17.673,0 32,14.327 32,32l0,24zm80,32l-64,0l0,-32c0,-17.673 14.327,-32 32,-32c17.673,0 32,14.327 32,32l0,32zm-48,-96c0,-8.837 7.163,-16 16,-16s16,7.163 16,16s-7.163,16 -16,16c-8.832,-0.011 -15.989,-7.168 -16,-16zm72,40l-14.494,0c-4.378,-7.557 -10.722,-13.786 -18.358,-18.024c12.202,-12.784 11.731,-33.04 -1.053,-45.243c-12.784,-12.202 -33.04,-11.731 -45.243,1.053c-11.803,12.365 -11.803,31.824 0,44.189c-3.664,2.035 -7.048,4.539 -10.064,7.449c-3.04,-13.372 -11.64,-24.812 -23.64,-31.449c11.467,-11.881 11.839,-30.593 0.853,-42.92l0,-187.055l112,0l0,272l-0.001,0z"/>
    </g>
   </g>
   <g stroke="null" transform="matrix(0.4094834912763833,0,0,0.3061501298638123,-503.8077254819218,-263.97742800603385) " id="svg_88">
    <g stroke="null" id="svg_89">
     <rect fill="#ffa500" stroke="null" id="svg_90" height="128" width="16" y="1049.91962" x="1610.55945"/>
    </g>
   </g>
   <g stroke="null" transform="matrix(0.4094834912763833,0,0,0.3061501298638123,-503.8077254819218,-263.97742800603385) " id="svg_91">
    <g stroke="null" id="svg_92">
     <rect fill="#ffa500" stroke="null" id="svg_93" height="128" width="16" y="1049.91962" x="1658.55945"/>
    </g>
   </g>
   <g stroke="null" transform="matrix(0.4094834912763833,0,0,0.3061501298638123,-503.8077254819218,-263.97742800603385) " id="svg_94">
    <g stroke="null" id="svg_95">
     <rect fill="#ffa500" stroke="null" id="svg_96" height="128" width="16" y="1049.91962" x="1274.55945"/>
    </g>
   </g>
   <g stroke="null" transform="matrix(0.4094834912763833,0,0,0.3061501298638123,-503.8077254819218,-263.97742800603385) " id="svg_97">
    <g stroke="null" id="svg_98">
     <rect fill="#ffa500" stroke="null" id="svg_99" height="128" width="16" y="1049.91962" x="1322.55945"/>
    </g>
   </g>
   <g stroke="null" transform="matrix(0.4094834912763833,0,0,0.3061501298638123,-503.8077254819218,-263.97742800603385) " id="svg_100">
    <g stroke="null" id="svg_101">
     <path fill="#ffa500" stroke="null" id="svg_102" d="m1522.56845,897.91962c-0.003,0 -0.006,0 -0.009,0l-96,0c-4.416,-0.003 -7.997,3.575 -8,7.991c0,0.003 0,0.006 0,0.009l0,64c-0.003,4.416 3.575,7.997 7.991,8c0.003,0 0.006,0 0.009,0l96,0c4.416,0.003 7.997,-3.575 8,-7.991c0,-0.003 0,-0.006 0,-0.009l0,-64c0.003,-4.416 -3.575,-7.997 -7.991,-8zm-8.009,64l-80,0l0,-48l80,0l0,48z"/>
    </g>
   </g>
   <g stroke="null" transform="matrix(0.4094834912763833,0,0,0.3061501298638123,-503.8077254819218,-263.97742800603385) " id="svg_103"/>
   <g stroke="null" transform="matrix(0.4094834912763833,0,0,0.3061501298638123,-503.8077254819218,-263.97742800603385) " id="svg_104"/>
   <g stroke="null" transform="matrix(0.4094834912763833,0,0,0.3061501298638123,-503.8077254819218,-263.97742800603385) " id="svg_105"/>
   <g stroke="null" transform="matrix(0.4094834912763833,0,0,0.3061501298638123,-503.8077254819218,-263.97742800603385) " id="svg_106"/>
   <g stroke="null" transform="matrix(0.4094834912763833,0,0,0.3061501298638123,-503.8077254819218,-263.97742800603385) " id="svg_107"/>
   <g stroke="null" transform="matrix(0.4094834912763833,0,0,0.3061501298638123,-503.8077254819218,-263.97742800603385) " id="svg_108"/>
   <g stroke="null" transform="matrix(0.4094834912763833,0,0,0.3061501298638123,-503.8077254819218,-263.97742800603385) " id="svg_109"/>
   <g stroke="null" transform="matrix(0.4094834912763833,0,0,0.3061501298638123,-503.8077254819218,-263.97742800603385) " id="svg_110"/>
   <g stroke="null" transform="matrix(0.4094834912763833,0,0,0.3061501298638123,-503.8077254819218,-263.97742800603385) " id="svg_111"/>
   <g stroke="null" transform="matrix(0.4094834912763833,0,0,0.3061501298638123,-503.8077254819218,-263.97742800603385) " id="svg_112"/>
   <g stroke="null" transform="matrix(0.4094834912763833,0,0,0.3061501298638123,-503.8077254819218,-263.97742800603385) " id="svg_113"/>
   <g stroke="null" transform="matrix(0.4094834912763833,0,0,0.3061501298638123,-503.8077254819218,-263.97742800603385) " id="svg_114"/>
   <g stroke="null" transform="matrix(0.4094834912763833,0,0,0.3061501298638123,-503.8077254819218,-263.97742800603385) " id="svg_115"/>
   <g stroke="null" transform="matrix(0.4094834912763833,0,0,0.3061501298638123,-503.8077254819218,-263.97742800603385) " id="svg_116"/>
   <g stroke="null" transform="matrix(0.4094834912763833,0,0,0.3061501298638123,-503.8077254819218,-263.97742800603385) " id="svg_117"/>
  </g>
 </g>
</svg>