<svg width="200" height="150" xmlns="http://www.w3.org/2000/svg">
 <!-- Created with Method Draw - http://github.com/duopixel/Method-Draw/ -->

 <g>
  <title>background</title>
  <rect fill="none" id="canvas_background" height="152" width="202" y="-1" x="-1"/>
  <g display="none" overflow="visible" y="0" x="0" height="100%" width="100%" id="canvasGrid">
   <rect fill="url(#gridpattern)" stroke-width="0" y="0" x="0" height="100%" width="100%"/>
  </g>
 </g>
 <g>
  <title>Layer 1</title>
  <!-- Generator: Sketch 51.3 (57544) - http://www.bohemiancoding.com/sketch -->
  <desc transform="matrix(0.6944444113307533,0,0,0.6944444113307533,0,0) ">Created with Sketch.</desc>

  <g stroke="null" id="svg_134">
   <g stroke="null" transform="matrix(0.3856255530612773,0,0,0.28538581059950296,-546.772108875774,-283.89836777536215) " id="svg_123">
    <path fill="#ffa500" stroke="null" id="svg_124" d="m1912.53919,1115.83071c-20.05,-11.58 -45.79,-4.68 -57.37,15.37l-37.26,64.55l0,-53.46c0,-5.52 -4.48,-10 -10,-10c-5.53,0 -10,4.48 -10,10l0,88l0,0.09l-109.83,190.23c-0.7,1.2 -1.13,2.54 -1.28,3.93l-7.52,69.75l-237.37,0l0,-472l356,0l0,30c0,5.52 4.47,10 10,10c5.52,0 10,-4.48 10,-10l0,-40c0,-5.52 -4.48,-10 -10,-10l-376,0c-5.53,0 -10,4.48 -10,10l0,492c0,5.52 4.47,10 10,10l376,0c5.52,0 10,-4.48 10,-10l0,-140.55l110.01,-190.54c11.57,-20.05 4.68,-45.79 -15.38,-57.37zm-207.5,326.12l28.83,16.64l-33.24,24.28l4.41,-40.92zm92.87,52.34l-79,0l39.16,-28.61c1.12,-0.82 2.06,-1.87 2.76,-3.07l37.08,-64.22l0,95.9zm-49.4,-50.34l-38.11,-22l146.37,-253.51l38.1,22l-146.36,253.51zm162.08,-280.75l-5.72,9.92l-38.1,-22l5.72,-9.92c6.06,-10.5 19.55,-14.11 30.05,-8.05c10.51,6.07 14.12,19.55 8.05,30.05z"/>
    <path fill="#ffa500" stroke="null" id="svg_125" d="m1807.90919,1087.29071c-2.64,0 -5.21,1.07 -7.07,2.93s-2.93,4.44 -2.93,7.07c0,2.64 1.07,5.21 2.93,7.07s4.44,2.93 7.07,2.93s5.21,-1.07 7.07,-2.93s2.93,-4.44 2.93,-7.07s-1.07,-5.21 -2.93,-7.07s-4.43,-2.93 -7.07,-2.93z"/>
    <path fill="#ffa500" stroke="null" id="svg_126" d="m1720.90919,1108.29071l-202,0c-5.53,0 -10,4.48 -10,10s4.47,10 10,10l202,0c5.52,0 10,-4.48 10,-10s-4.48,-10 -10,-10z"/>
    <path fill="#ffa500" stroke="null" id="svg_127" d="m1720.90919,1164.29071l-202,0c-5.53,0 -10,4.48 -10,10s4.47,10 10,10l202,0c5.52,0 10,-4.48 10,-10s-4.48,-10 -10,-10z"/>
    <path fill="#ffa500" stroke="null" id="svg_128" d="m1720.90919,1220.29071l-74.25,0c-5.53,0 -10,4.48 -10,10s4.47,10 10,10l74.25,0c5.52,0 10,-4.48 10,-10s-4.48,-10 -10,-10z"/>
    <path fill="#ffa500" stroke="null" id="svg_129" d="m1730.90919,1286.29071c0,-5.52 -4.48,-10 -10,-10l-202,0c-5.53,0 -10,4.48 -10,10s4.47,10 10,10l202,0c5.52,0 10,-4.48 10,-10z"/>
    <path fill="#ffa500" stroke="null" id="svg_130" d="m1687.90919,1342.29071c0,-5.52 -4.48,-10 -10,-10l-62.5,0c-5.53,0 -10,4.48 -10,10s4.47,10 10,10l62.5,0c5.52,0 10,-4.48 10,-10z"/>
    <path fill="#ffa500" stroke="null" id="svg_131" d="m1518.90919,1408.29071l88,0c5.52,0 10,-4.48 10,-10s-4.48,-10 -10,-10l-88,0c-5.53,0 -10,4.48 -10,10s4.47,10 10,10z"/>
    <path fill="#ffa500" stroke="null" id="svg_132" d="m1518.90919,1240.29071l66.66,0c5.53,0 10,-4.48 10,-10s-4.47,-10 -10,-10l-66.66,0c-5.53,0 -10,4.48 -10,10s4.47,10 10,10z"/>
    <path fill="#ffa500" stroke="null" id="svg_133" d="m1518.90919,1352.29071l51.5,0c5.52,0 10,-4.48 10,-10s-4.48,-10 -10,-10l-51.5,0c-5.53,0 -10,4.48 -10,10s4.47,10 10,10z"/>
   </g>
  </g>
 </g>
</svg>