<svg width="200" height="150" xmlns="http://www.w3.org/2000/svg">
 <!-- Created with Method Draw - http://github.com/duopixel/Method-Draw/ -->

 <g>
  <title>background</title>
  <rect fill="none" id="canvas_background" height="152" width="202" y="-1" x="-1"/>
  <g display="none" overflow="visible" y="0" x="0" height="100%" width="100%" id="canvasGrid">
   <rect fill="url(#gridpattern)" stroke-width="0" y="0" x="0" height="100%" width="100%"/>
  </g>
 </g>
 <g>
  <title>Layer 1</title>
  <!-- Generator: Sketch 51.3 (57544) - http://www.bohemiancoding.com/sketch -->
  <desc transform="matrix(0.6944444113307533,0,0,0.6944444113307533,0,0) ">Created with Sketch.</desc>

  <g stroke="null" id="svg_11">
   <g transform="matrix(3.195814293954609,0,0,2.3611104717158704,-360.19730045599704,-179.9999545191277) " fill-rule="evenodd" fill="none" id="svg_6">
    <g stroke="null" fill-rule="nonzero" fill="#000000" id="svg_7">
     <path fill="#ffa500" stroke="null" id="svg_9" d="m118.208,117.34201c0.52917,1.1668 1.26463,2.22849 2.171,3.134l6.164,6.163c-0.34761,0.36803 -0.5418,0.85476 -0.543,1.361l0,8c0,1.10457 0.89543,2 2,2l11,0c1.10457,0 2,-0.89543 2,-2l0,-8c0,-1.10457 -0.89543,-2 -2,-2l0,-1.861c0.03053,-2.36815 -0.74174,-4.67685 -2.191,-6.55c-0.85037,-1.11824 -2.0093,-1.96328 -3.334,-2.431c-2.10583,-0.88497 -4.04245,-2.12801 -5.724,-3.674c-1.56064,-1.2897 -3.77972,-1.41136 -5.472,-0.3l-2.158,-5.038c-0.45998,-1.04197 -1.4409,-1.75938 -2.57326,-1.88201c-1.13236,-0.12263 -2.24412,0.36816 -2.9165,1.2875c-0.67238,0.91933 -0.80322,2.12754 -0.34324,3.16951l3.92,8.621zm20.792,18.658l-11,0l0,-8l11,0l0,8zm-22.809,-29.242c0.21659,-0.34244 0.59483,-0.54858 1,-0.545c0.47601,-0.00079 0.90637,0.2831 1.093,0.721l2.236,5.217c0.59429,1.39151 1.4501,2.65604 2.521,3.725l4.569,4.569c0.25107,0.25996 0.62288,0.36421 0.97251,0.2727c0.34963,-0.09152 0.62267,-0.36456 0.71419,-0.71419c0.09151,-0.34963 -0.01274,-0.72144 -0.2727,-0.97251l-4.569,-4.569c-0.45902,-0.45825 -0.87168,-0.96068 -1.232,-1.5c0.96053,-0.73951 2.30465,-0.71711 3.24,0.054c1.86886,1.71569 4.02911,3.08384 6.379,4.04c0.95632,0.34839 1.79034,0.968 2.4,1.783c1.16754,1.51754 1.78715,3.38553 1.758,5.3l0,1.861l-8.269,0l-6.938,-6.938c-0.73666,-0.73599 -1.33457,-1.5988 -1.765,-2.547l-3.92,-8.621c-0.17018,-0.36763 -0.13881,-0.79702 0.083,-1.136z"/>
     <path fill="#ffa500" stroke="null" id="svg_8" d="m136,131.00001l-1,0c-0.55228,0 -1,0.44772 -1,1c0,0.55228 0.44772,1 1,1l1,0c0.55228,0 1,-0.44772 1,-1c0,-0.55228 -0.44772,-1 -1,-1z"/>
     <path fill="#ffa500" stroke="null" id="Shape" d="m154.525,115.15801c-1.3247,0.46772 -2.48363,1.31276 -3.334,2.431c-1.44926,1.87315 -2.22153,4.18185 -2.191,6.55l0,1.861c-1.10457,0 -2,0.89543 -2,2l0,8c0,1.10457 0.89543,2 2,2l11,0c1.10457,0 2,-0.89543 2,-2l0,-8c-0.0012,-0.50624 -0.19539,-0.99297 -0.543,-1.361l6.164,-6.163c0.90612,-0.90534 1.64155,-1.96665 2.171,-3.133l3.92,-8.622c0.45998,-1.04197 0.32914,-2.25018 -0.34324,-3.16951c-0.67238,-0.91934 -1.78414,-1.41013 -2.9165,-1.2875c-1.13236,0.12263 -2.11328,0.84004 -2.57326,1.88201l-2.158,5.035c-1.69179,-1.11185 -3.91093,-0.99017 -5.471,0.3c-1.68186,1.54683 -3.61879,2.79086 -5.725,3.677zm5.475,20.842l-11,0l0,-8l11,0l0,8zm4.776,-23.038c-0.35987,0.53937 -0.77221,1.04181 -1.231,1.5l-4.569,4.569c-0.37897,0.39238 -0.37355,1.01608 0.01218,1.40182c0.38574,0.38573 1.00944,0.39115 1.40182,0.01218l4.569,-4.569c1.0709,-1.06896 1.92671,-2.33349 2.521,-3.725l2.237,-5.218c0.18715,-0.43733 0.61731,-0.72069 1.093,-0.72c0.4039,0.0003 0.78003,0.20563 0.99873,0.5452c0.2187,0.33957 0.25006,0.76694 0.08327,1.1348l-3.92,8.622c-0.43043,0.9482 -1.02834,1.81101 -1.765,2.547l-6.938,6.938l-8.269,0l0,-1.861c-0.03029,-1.914 0.58789,-3.78194 1.754,-5.3c0.60966,-0.815 1.44368,-1.43461 2.4,-1.783c2.35011,-0.95632 4.51066,-2.32444 6.38,-4.04c0.93572,-0.77217 2.28108,-0.79458 3.242,-0.054z"/>
     <path fill="#ffa500" stroke="null" id="Shape" d="m153,131.00001l-1,0c-0.55228,0 -1,0.44772 -1,1c0,0.55228 0.44772,1 1,1l1,0c0.55228,0 1,-0.44772 1,-1c0,-0.55228 -0.44772,-1 -1,-1z"/>
     <path fill="#ffa500" stroke="null" id="Shape" d="m127.553,96.90001c0.33976,0.16771 0.74513,0.129 1.047,-0.1l1.4,-1.05l0,14.25c0,1.10457 0.89543,2 2,2l24,0c1.10457,0 2,-0.89543 2,-2l0,-14.25l1.4,1.05c0.30302,0.22726 0.70843,0.26382 1.04721,0.09443c0.33879,-0.16939 0.55279,-0.51566 0.55279,-0.89443l0,-5c0,-0.31476 -0.14819,-0.61115 -0.4,-0.8l-16,-12c-0.35556,-0.26667 -0.84444,-0.26667 -1.2,0l-7.4,5.55l0,-1.75c0,-1.10457 -0.89543,-2 -2,-2l-2,0c-1.10457,0 -2,0.89543 -2,2l0,6.25l-2.6,1.95c-0.25181,0.18885 -0.4,0.48524 -0.4,0.8l0,5c-0.00208,0.38083 0.21233,0.72977 0.553,0.9zm12.447,13.1l0,-8c0,-2.20914 1.79086,-4 4,-4c2.20914,0 4,1.79086 4,4l0,8l-8,0zm16,0l-6,0l0,-8c0,-3.31371 -2.68629,-6 -6,-6c-3.31371,0 -6,2.68629 -6,6l0,8l-6,0l0,-15.75l12,-9l12,9l0,15.75zm-24,-28l2,0l0,3.25l-2,1.5l0,-4.75zm-3,9.5l15,-11.25l15,11.25l0,2.5l-14.4,-10.8c-0.35556,-0.26667 -0.84444,-0.26667 -1.2,0l-14.4,10.8l0,-2.5z"/>
    </g>
   </g>
  </g>
 </g>
</svg>