<svg width="200" height="200" xmlns="http://www.w3.org/2000/svg">
 <!-- Created with Method Draw - http://github.com/duopixel/Method-Draw/ -->

 <g>
  <title>background</title>
  <rect fill="none" id="canvas_background" height="202" width="202" y="-1" x="-1"/>
  <g display="none" overflow="visible" y="0" x="0" height="100%" width="100%" id="canvasGrid">
   <rect fill="url(#gridpattern)" stroke-width="0" y="0" x="0" height="100%" width="100%"/>
  </g>
 </g>
 <g>
  <title>Layer 1</title>
  <g stroke="null" id="svg_161">
   <path fill="#ffa500" stroke="null" id="svg_159" d="m197.18187,44.94355c-0.71667,-2.18119 -2.56874,-3.75785 -4.81538,-4.10913l-31.58985,-4.90155l-14.18846,-30.651c-1.98091,-4.29702 -8.9463,-4.29702 -10.9272,0l-14.1804,30.65917l-31.58985,4.90155c-2.23859,0.34311 -4.09871,1.92794 -4.81538,4.10913c-0.72472,2.18119 -0.17715,4.58295 1.40113,6.22496l23.03812,23.95222l-5.45152,33.89419c-0.37041,2.3119 0.58783,4.64013 2.48821,5.99622c1.88428,1.35609 4.38054,1.47863 6.40172,0.35128l28.1756,-15.80749l28.1756,15.80749c0.90993,0.50649 1.91649,0.75974 2.92305,0.75974c1.21592,0 2.4399,-0.37579 3.47867,-1.11919c1.89233,-1.35609 2.85058,-3.68433 2.48821,-5.99622l-5.45152,-33.89419l23.03812,-23.95222c1.57828,-1.64202 2.12585,-4.04378 1.40113,-6.22496zm-35.21346,23.83785c-1.33671,1.38877 -1.94065,3.34939 -1.63465,5.26916l3.93766,24.49139l-20.21976,-11.33891c-0.90993,-0.50649 -1.91649,-0.76791 -2.92305,-0.76791s-2.01312,0.25325 -2.92305,0.76791l-20.21976,11.33891l3.93766,-24.49139c0.30599,-1.91977 -0.29794,-3.87222 -1.63465,-5.26916l-16.95851,-17.62923l23.15891,-3.5863c1.98896,-0.31043 3.69608,-1.60117 4.54965,-3.44742l10.08975,-21.81188l10.08975,21.79554c0.85356,1.84625 2.56069,3.14516 4.54965,3.44742l23.15891,3.5863l-16.95851,17.64557z"/>
   <path fill="#ffa500" stroke="null" id="svg_160" d="m171.32538,142.68037c-9.03487,0 -18.71395,3.27587 -28.07897,6.44553c-0.21742,0.07352 -0.43483,0.14705 -0.65225,0.2124c-1.82791,-8.5532 -8.4551,-15.51339 -17.15982,-17.3188l-71.24827,-14.78633l0.16105,-0.61269c0.6442,-2.40176 -0.20936,-4.95873 -2.16612,-6.47004c-0.53146,-0.41663 -13.6731,-10.3586 -41.90507,-10.3586c-3.33372,0 -6.03935,2.74487 -6.03935,6.12693l0,69.43857c0,3.38207 2.70563,6.12693 6.03935,6.12693l22.1443,0c2.72979,0 5.12137,-1.85442 5.82999,-4.52576l0.55562,-2.06682c21.02501,9.73774 52.68733,22.93107 70.11288,22.93107c25.42166,0 83.02099,-32.07245 85.45284,-33.43671c2.66537,-1.49497 3.82492,-4.77084 2.68953,-7.63824c-0.22547,-0.58002 -5.77362,-14.06744 -25.7357,-14.06744zm-155.01009,26.55004l0,-57.01315c12.71485,0.75157 20.94448,3.75785 25.15592,5.77565l-12.11897,45.40465c-0.04026,0.07352 -0.10468,0.11437 -0.13689,0.18789c-0.37041,0.79242 -0.53952,1.61751 -0.56367,2.43443l-0.85356,3.21051l-11.48283,0zm92.60343,16.33849c-11.82103,0 -36.09923,-8.28361 -66.91604,-22.69416l9.01877,-33.78799l71.9891,14.94155c4.31613,0.89045 7.42438,4.60745 7.87532,8.98617c-4.22755,1.13552 -8.28599,1.91977 -11.90155,1.91977c-14.83265,0 -35.97845,-7.71993 -36.18781,-7.80163c-3.11631,-1.13552 -6.58692,0.49015 -7.73843,3.66799c-1.14345,3.17784 0.48315,6.69061 3.61556,7.85064c0.94214,0.34311 23.33606,8.53686 40.31068,8.53686c6.2004,0 12.7068,-1.58483 19.20515,-3.57813c0.53952,-0.1062 1.05487,-0.2124 1.53802,-0.44931c2.456,-0.77608 4.90396,-1.60117 7.3358,-2.4181c8.44704,-2.85924 17.19203,-5.80833 24.2621,-5.80833c4.85564,0 8.18936,1.11919 10.42795,2.40993c-19.43062,10.32592 -56.5042,28.22474 -72.83461,28.22474z"/>
  </g>
 </g>
</svg>